<svg width="81" height="81" viewBox="0 0 81 81" fill="none" xmlns="http://www.w3.org/2000/svg">
<path d="M18.3707 48.9964V1.5H40.4812C41.6642 1.5461 43.6011 1.91761 45.458 2.88957C47.3108 3.85931 49.0297 5.39524 49.9023 7.75349C51.0458 10.844 51.0437 14.3439 49.9997 17.2881C48.9584 20.2246 46.9145 22.5349 44.0148 23.4293L44.3095 25.3849H48.5183L44.2789 29.8683C43.1874 28.9592 41.337 27.899 38.9484 27.7047C36.0503 27.469 29.4769 27.6066 26.5894 27.702L25.6224 27.7339V28.7014V42.2266V43.2266H26.6224H35.1489L22.7938 56.0045L27.382 50.6469L28.7954 48.9964H26.6224H18.3707ZM71.1406 37.246C69.2852 38.1561 66.8335 39.2201 65.2913 39.8672C64.9645 39.4638 64.6522 39.0674 64.3445 38.6767L64.2886 38.6058C62.7601 36.6654 61.3125 34.8277 59.0258 33.5944C57.1374 32.5759 54.756 32.0051 51.4005 31.9621L67.854 15.4617L59.3132 26.0596L58.4815 27.0916L59.7022 27.608C61.043 28.1752 62.7874 28.9282 64.8292 30.4706C66.7011 31.8846 68.8495 33.9833 71.1406 37.246ZM26.3503 7.84532H25.3503V8.84532V20.9317V21.9317H26.3503H39.4116H39.4867L39.561 21.9204C40.5418 21.7722 41.7028 20.9879 42.5917 19.8061C43.5141 18.5797 44.2211 16.8345 44.2211 14.6007C44.2211 12.0745 43.4165 10.3558 42.2779 9.27205C41.1654 8.21322 39.8214 7.84532 38.8673 7.84532H26.3503ZM46.6879 72.4249C39.0688 69.9975 32.851 63.2715 30.99 56.5887L36.227 50.64C36.6688 57.997 40.8912 63.9748 46.413 66.4825C49.5176 67.8923 53.0304 68.1991 56.4635 67.0165C59.6747 65.9103 62.7399 63.5281 65.3177 59.6792L70.6127 62.6945C66.93 67.7709 62.9275 70.7566 58.9664 72.2242C54.7813 73.7747 50.5648 73.66 46.6879 72.4249Z" fill="#FF4B00" stroke="#FF4B00" stroke-width="2"/>
</svg>
