<svg width="218" height="81" viewBox="0 0 218 81" fill="none" xmlns="http://www.w3.org/2000/svg">
<path d="M18.3707 48.9964V1.5H40.4812C41.6642 1.5461 43.6011 1.91761 45.458 2.88957C47.3108 3.85931 49.0297 5.39524 49.9023 7.75349C51.0458 10.844 51.0437 14.3439 49.9997 17.2881C48.9584 20.2246 46.9145 22.5349 44.0148 23.4293L44.3095 25.3849H48.5183L44.2789 29.8683C43.1874 28.9592 41.337 27.899 38.9484 27.7047C36.0503 27.469 29.4769 27.6066 26.5894 27.702L25.6224 27.7339V28.7014V42.2266V43.2266H26.6224H35.1489L22.7938 56.0045L27.382 50.6469L28.7954 48.9964H26.6224H18.3707ZM71.1406 37.246C69.2852 38.1561 66.8335 39.2201 65.2913 39.8672C64.9645 39.4638 64.6522 39.0674 64.3445 38.6767L64.2886 38.6058C62.7601 36.6654 61.3125 34.8277 59.0258 33.5944C57.1374 32.5759 54.756 32.0051 51.4005 31.9621L67.854 15.4617L59.3132 26.0596L58.4815 27.0916L59.7022 27.608C61.043 28.1752 62.7874 28.9282 64.8292 30.4706C66.7011 31.8846 68.8495 33.9833 71.1406 37.246ZM26.3503 7.84532H25.3503V8.84532V20.9317V21.9317H26.3503H39.4116H39.4867L39.561 21.9204C40.5418 21.7722 41.7028 20.9879 42.5917 19.8061C43.5141 18.5797 44.2211 16.8345 44.2211 14.6007C44.2211 12.0745 43.4165 10.3558 42.2779 9.27205C41.1654 8.21322 39.8214 7.84532 38.8673 7.84532H26.3503ZM46.6879 72.4249C39.0688 69.9975 32.851 63.2715 30.99 56.5887L36.227 50.64C36.6688 57.997 40.8912 63.9748 46.413 66.4825C49.5176 67.8923 53.0304 68.1991 56.4635 67.0165C59.6747 65.9103 62.7399 63.5281 65.3177 59.6792L70.6127 62.6945C66.93 67.7709 62.9275 70.7566 58.9664 72.2242C54.7813 73.7747 50.5648 73.66 46.6879 72.4249Z" fill="#374151" stroke="#374151" stroke-width="2"/>
<path d="M73.3802 44.432L69.7882 56H67.8442L65.3162 48.096C65.2469 47.904 65.1829 47.6693 65.1242 47.392C65.0922 47.5253 65.0602 47.6507 65.0282 47.768C64.9962 47.8853 64.9615 47.9947 64.9242 48.096L62.3722 56H60.4202L56.8362 44.432H58.6362C58.8229 44.432 58.9775 44.4773 59.1002 44.568C59.2282 44.6533 59.3135 44.7707 59.3562 44.92L61.3242 51.84C61.3669 52.0107 61.4069 52.1973 61.4442 52.4C61.4869 52.5973 61.5295 52.8053 61.5722 53.024C61.6149 52.8 61.6602 52.5893 61.7082 52.392C61.7615 52.1947 61.8175 52.0107 61.8762 51.84L64.1482 44.92C64.1909 44.7973 64.2735 44.6853 64.3962 44.584C64.5242 44.4827 64.6789 44.432 64.8602 44.432H65.4922C65.6789 44.432 65.8309 44.4773 65.9482 44.568C66.0655 44.6587 66.1535 44.776 66.2122 44.92L68.4762 51.84C68.5882 52.1707 68.6895 52.552 68.7802 52.984C68.8495 52.5627 68.9269 52.1813 69.0122 51.84L70.9802 44.92C71.0122 44.7867 71.0922 44.672 71.2202 44.576C71.3535 44.48 71.5109 44.432 71.6922 44.432H73.3802ZM76.9607 56H74.8007V44.432H76.9607V56ZM87.6307 46.2H84.1427V56H81.9907V46.2H78.5027V44.432H87.6307V46.2ZM98.8964 44.432V56H96.7364V50.944H91.3044V56H89.1444V44.432H91.3044V49.408H96.7364V44.432H98.8964ZM110.019 54.264C110.435 54.264 110.806 54.1947 111.131 54.056C111.462 53.9173 111.739 53.7227 111.963 53.472C112.187 53.2213 112.358 52.9173 112.475 52.56C112.598 52.2027 112.659 51.8027 112.659 51.36V44.432H114.811V51.36C114.811 52.048 114.699 52.6853 114.475 53.272C114.257 53.8533 113.939 54.3573 113.523 54.784C113.113 55.2053 112.611 55.536 112.019 55.776C111.427 56.0107 110.761 56.128 110.019 56.128C109.273 56.128 108.603 56.0107 108.011 55.776C107.419 55.536 106.915 55.2053 106.499 54.784C106.089 54.3573 105.771 53.8533 105.547 53.272C105.329 52.6853 105.219 52.048 105.219 51.36V44.432H107.371V51.352C107.371 51.7947 107.43 52.1947 107.547 52.552C107.67 52.9093 107.843 53.216 108.067 53.472C108.297 53.7227 108.574 53.9173 108.899 54.056C109.23 54.1947 109.603 54.264 110.019 54.264ZM123.398 46.536C123.334 46.648 123.265 46.7307 123.19 46.784C123.121 46.832 123.033 46.856 122.926 46.856C122.814 46.856 122.692 46.816 122.558 46.736C122.43 46.6507 122.276 46.5573 122.094 46.456C121.913 46.3547 121.7 46.264 121.454 46.184C121.214 46.0987 120.929 46.056 120.598 46.056C120.3 46.056 120.038 46.0933 119.814 46.168C119.59 46.2373 119.401 46.336 119.246 46.464C119.097 46.592 118.985 46.7467 118.91 46.928C118.836 47.104 118.798 47.2987 118.798 47.512C118.798 47.784 118.873 48.0107 119.022 48.192C119.177 48.3733 119.38 48.528 119.63 48.656C119.881 48.784 120.166 48.8987 120.486 49C120.806 49.1013 121.134 49.2107 121.47 49.328C121.806 49.44 122.134 49.5733 122.454 49.728C122.774 49.8773 123.06 50.0693 123.31 50.304C123.561 50.5333 123.761 50.816 123.91 51.152C124.065 51.488 124.142 51.896 124.142 52.376C124.142 52.8987 124.052 53.3893 123.87 53.848C123.694 54.3013 123.433 54.6987 123.086 55.04C122.745 55.376 122.326 55.6427 121.83 55.84C121.334 56.032 120.766 56.128 120.126 56.128C119.758 56.128 119.396 56.0907 119.038 56.016C118.681 55.9467 118.337 55.8453 118.006 55.712C117.681 55.5787 117.374 55.4187 117.086 55.232C116.798 55.0453 116.542 54.8373 116.318 54.608L116.95 53.576C117.004 53.5013 117.073 53.44 117.158 53.392C117.244 53.3387 117.334 53.312 117.43 53.312C117.564 53.312 117.708 53.368 117.862 53.48C118.017 53.5867 118.201 53.7067 118.414 53.84C118.628 53.9733 118.876 54.096 119.158 54.208C119.446 54.3147 119.79 54.368 120.19 54.368C120.804 54.368 121.278 54.224 121.614 53.936C121.95 53.6427 122.118 53.224 122.118 52.68C122.118 52.376 122.041 52.128 121.886 51.936C121.737 51.744 121.537 51.584 121.286 51.456C121.036 51.3227 120.75 51.2107 120.43 51.12C120.11 51.0293 119.785 50.9307 119.454 50.824C119.124 50.7173 118.798 50.5893 118.478 50.44C118.158 50.2907 117.873 50.096 117.622 49.856C117.372 49.616 117.169 49.3173 117.014 48.96C116.865 48.5973 116.79 48.152 116.79 47.624C116.79 47.2027 116.873 46.792 117.038 46.392C117.209 45.992 117.454 45.6373 117.774 45.328C118.094 45.0187 118.489 44.7707 118.958 44.584C119.428 44.3973 119.966 44.304 120.574 44.304C121.257 44.304 121.886 44.4107 122.462 44.624C123.038 44.8373 123.529 45.136 123.934 45.52L123.398 46.536ZM139.662 44.432V56H138.558C138.387 56 138.243 55.9733 138.126 55.92C138.014 55.8613 137.905 55.7653 137.798 55.632L131.758 47.92C131.79 48.272 131.806 48.5973 131.806 48.896V56H129.91V44.432H131.038C131.129 44.432 131.206 44.4373 131.27 44.448C131.339 44.4533 131.398 44.4693 131.446 44.496C131.499 44.5173 131.55 44.552 131.598 44.6C131.646 44.6427 131.699 44.7013 131.758 44.776L137.822 52.52C137.806 52.3333 137.793 52.1493 137.782 51.968C137.771 51.7867 137.766 51.6187 137.766 51.464V44.432H139.662ZM153.27 50.216C153.27 51.064 153.129 51.8507 152.846 52.576C152.569 53.296 152.174 53.92 151.662 54.448C151.15 54.976 150.534 55.3893 149.814 55.688C149.094 55.9813 148.294 56.128 147.414 56.128C146.54 56.128 145.742 55.9813 145.022 55.688C144.302 55.3893 143.684 54.976 143.166 54.448C142.654 53.92 142.257 53.296 141.974 52.576C141.692 51.8507 141.55 51.064 141.55 50.216C141.55 49.368 141.692 48.584 141.974 47.864C142.257 47.1387 142.654 46.512 143.166 45.984C143.684 45.456 144.302 45.0453 145.022 44.752C145.742 44.4533 146.54 44.304 147.414 44.304C148.001 44.304 148.553 44.3733 149.07 44.512C149.588 44.6453 150.062 44.8373 150.494 45.088C150.926 45.3333 151.313 45.6347 151.654 45.992C152.001 46.344 152.294 46.7387 152.534 47.176C152.774 47.6133 152.956 48.088 153.078 48.6C153.206 49.112 153.27 49.6507 153.27 50.216ZM151.07 50.216C151.07 49.5813 150.985 49.0133 150.814 48.512C150.644 48.0053 150.401 47.576 150.086 47.224C149.772 46.872 149.388 46.6027 148.934 46.416C148.486 46.2293 147.98 46.136 147.414 46.136C146.849 46.136 146.34 46.2293 145.886 46.416C145.438 46.6027 145.054 46.872 144.734 47.224C144.42 47.576 144.177 48.0053 144.006 48.512C143.836 49.0133 143.75 49.5813 143.75 50.216C143.75 50.8507 143.836 51.4213 144.006 51.928C144.177 52.4293 144.42 52.856 144.734 53.208C145.054 53.5547 145.438 53.8213 145.886 54.008C146.34 54.1947 146.849 54.288 147.414 54.288C147.98 54.288 148.486 54.1947 148.934 54.008C149.388 53.8213 149.772 53.5547 150.086 53.208C150.401 52.856 150.644 52.4293 150.814 51.928C150.985 51.4213 151.07 50.8507 151.07 50.216ZM162.547 49.936C162.952 49.936 163.304 49.8853 163.603 49.784C163.907 49.6827 164.155 49.544 164.347 49.368C164.544 49.1867 164.691 48.9733 164.787 48.728C164.883 48.4827 164.931 48.2133 164.931 47.92C164.931 47.3333 164.736 46.8827 164.347 46.568C163.963 46.2533 163.373 46.096 162.579 46.096H161.203V49.936H162.547ZM168.083 56H166.139C165.771 56 165.504 55.856 165.339 55.568L162.907 51.864C162.816 51.7253 162.715 51.6267 162.603 51.568C162.496 51.5093 162.336 51.48 162.123 51.48H161.203V56H159.051V44.432H162.579C163.363 44.432 164.035 44.5147 164.595 44.68C165.16 44.84 165.621 45.0667 165.979 45.36C166.341 45.6533 166.608 46.0053 166.779 46.416C166.949 46.8213 167.035 47.2693 167.035 47.76C167.035 48.1493 166.976 48.5173 166.859 48.864C166.747 49.2107 166.581 49.5253 166.363 49.808C166.149 50.0907 165.883 50.3387 165.563 50.552C165.248 50.7653 164.888 50.9333 164.483 51.056C164.621 51.136 164.749 51.232 164.867 51.344C164.984 51.4507 165.091 51.5787 165.187 51.728L168.083 56ZM171.492 46.144V49.352H175.54V51.008H171.492V54.28H176.628V56H169.332V44.432H176.628V46.144H171.492ZM187.821 50.2V54.88C187.234 55.312 186.608 55.6293 185.941 55.832C185.28 56.0293 184.57 56.128 183.813 56.128C182.869 56.128 182.013 55.9813 181.245 55.688C180.482 55.3947 179.829 54.9867 179.285 54.464C178.746 53.9413 178.33 53.3173 178.037 52.592C177.744 51.8667 177.597 51.0747 177.597 50.216C177.597 49.3467 177.738 48.5493 178.021 47.824C178.304 47.0987 178.704 46.4747 179.221 45.952C179.744 45.4293 180.376 45.024 181.117 44.736C181.858 44.448 182.69 44.304 183.613 44.304C184.082 44.304 184.52 44.3413 184.925 44.416C185.336 44.4907 185.714 44.5947 186.061 44.728C186.413 44.856 186.733 45.0133 187.021 45.2C187.309 45.3867 187.573 45.592 187.813 45.816L187.197 46.792C187.101 46.9467 186.976 47.0427 186.821 47.08C186.666 47.112 186.498 47.072 186.317 46.96C186.141 46.8587 185.965 46.7573 185.789 46.656C185.613 46.5547 185.416 46.4667 185.197 46.392C184.984 46.3173 184.741 46.256 184.469 46.208C184.202 46.16 183.893 46.136 183.541 46.136C182.97 46.136 182.453 46.232 181.989 46.424C181.53 46.616 181.138 46.8907 180.813 47.248C180.488 47.6053 180.237 48.0347 180.061 48.536C179.885 49.0373 179.797 49.5973 179.797 50.216C179.797 50.8773 179.89 51.4693 180.077 51.992C180.269 52.5093 180.536 52.9493 180.877 53.312C181.224 53.6693 181.64 53.944 182.125 54.136C182.61 54.3227 183.152 54.416 183.749 54.416C184.176 54.416 184.557 54.3707 184.893 54.28C185.229 54.1893 185.557 54.0667 185.877 53.912V51.816H184.421C184.282 51.816 184.173 51.7787 184.093 51.704C184.018 51.624 183.981 51.528 183.981 51.416V50.2H187.821ZM193.39 49.936C193.796 49.936 194.148 49.8853 194.446 49.784C194.75 49.6827 194.998 49.544 195.19 49.368C195.388 49.1867 195.534 48.9733 195.63 48.728C195.726 48.4827 195.774 48.2133 195.774 47.92C195.774 47.3333 195.58 46.8827 195.19 46.568C194.806 46.2533 194.217 46.096 193.422 46.096H192.046V49.936H193.39ZM198.926 56H196.982C196.614 56 196.348 55.856 196.182 55.568L193.75 51.864C193.66 51.7253 193.558 51.6267 193.446 51.568C193.34 51.5093 193.18 51.48 192.966 51.48H192.046V56H189.894V44.432H193.422C194.206 44.432 194.878 44.5147 195.438 44.68C196.004 44.84 196.465 45.0667 196.822 45.36C197.185 45.6533 197.452 46.0053 197.622 46.416C197.793 46.8213 197.878 47.2693 197.878 47.76C197.878 48.1493 197.82 48.5173 197.702 48.864C197.59 49.2107 197.425 49.5253 197.206 49.808C196.993 50.0907 196.726 50.3387 196.406 50.552C196.092 50.7653 195.732 50.9333 195.326 51.056C195.465 51.136 195.593 51.232 195.71 51.344C195.828 51.4507 195.934 51.5787 196.03 51.728L198.926 56ZM202.336 46.144V49.352H206.384V51.008H202.336V54.28H207.472V56H200.176V44.432H207.472V46.144H202.336ZM217.459 46.2H213.971V56H211.819V46.2H208.331V44.432H217.459V46.2Z" fill="#374151"/>
</svg>
